<svg xmlns="http://www.w3.org/2000/svg" viewBox="0 0 900 600">
  <rect width="900" height="200" fill="#007A3D"/>
  <rect y="200" width="900" height="200" fill="#FFFFFF"/>
  <rect y="400" width="900" height="200" fill="#000000"/>
  <g fill="#CE1126">
    <polygon points="225,265 238,303 278,303 246,326 258,364 225,341 192,364 204,326 172,303 212,303"/>
    <polygon points="450,265 463,303 503,303 471,326 483,364 450,341 417,364 429,326 397,303 437,303"/>
    <polygon points="675,265 688,303 728,303 696,326 708,364 675,341 642,364 654,326 622,303 662,303"/>
  </g>
</svg>
